HIERARCHY
ROOT hip
{
	OFFSET 0.000000 0.000000 0.000000
	CHANNELS 6 Xposition Yposition Zposition Zrotation Yrotation Xrotation 
	JOINT lhipjoint
	{
		OFFSET 0.000000 0.000000 0.000000
		CHANNELS 3 Zrotation Yrotation Xrotation
		JOINT lfemur
		{
			OFFSET 1.363060 -1.794630 0.839290
			CHANNELS 3 Zrotation Yrotation Xrotation
			JOINT ltibia
			{
				OFFSET 2.448110 -6.726130 0.000000
				CHANNELS 3 Zrotation Yrotation Xrotation
				JOINT lfoot
				{
					OFFSET 2.562200 -7.039590 0.000000
					CHANNELS 3 Zrotation Yrotation Xrotation
					JOINT ltoes
					{
						OFFSET 0.157640 -0.433110 2.322550
						CHANNELS 3 Zrotation Yrotation Xrotation
						End Site
						{
							OFFSET 0.000000 0.000000 0.000000
						}
					}
				}
			}
		}
	}
	JOINT rhipjoint
	{
		OFFSET 0.000000 0.000000 0.000000
		CHANNELS 3 Zrotation Yrotation Xrotation
		JOINT rfemur
		{
			OFFSET -1.305520 -1.794630 0.839290
			CHANNELS 3 Zrotation Yrotation Xrotation
			JOINT rtibia
			{
				OFFSET -2.542530 -6.985550 0.000000
				CHANNELS 3 Zrotation Yrotation Xrotation
				JOINT rfoot
				{
					OFFSET -2.568260 -7.056230 0.000000
					CHANNELS 3 Zrotation Yrotation Xrotation
					JOINT rtoes
					{
						OFFSET -0.164730 -0.452590 2.363150
						CHANNELS 3 Zrotation Yrotation Xrotation
						End Site
						{
							OFFSET 0.000000 0.000000 0.000000
						}
					}
				}
			}
		}
	}
	JOINT lowerback
	{
		OFFSET 0.000000 0.000000 0.000000
		CHANNELS 3 Zrotation Yrotation Xrotation
		JOINT upperback
		{
			OFFSET 0.028270 2.035590 -0.193380
			CHANNELS 3 Zrotation Yrotation Xrotation
			JOINT thorax
			{
				OFFSET 0.056720 2.048850 -0.042750
				CHANNELS 3 Zrotation Yrotation Xrotation
				JOINT lowerneck
				{
					OFFSET 0.000000 0.000000 0.000000
					CHANNELS 3 Zrotation Yrotation Xrotation
					JOINT upperneck
					{
						OFFSET -0.054170 1.746240 0.172020
						CHANNELS 3 Zrotation Yrotation Xrotation
						JOINT head
						{
							OFFSET 0.104070 1.761360 -0.123970
							CHANNELS 3 Zrotation Yrotation Xrotation
							End Site
							{
								OFFSET 0.000000 0.000000 0.000000
							}
						}
					}
				}
				JOINT lclavicle
				{
					OFFSET 0.000000 0.000000 0.000000
					CHANNELS 3 Zrotation Yrotation Xrotation
					JOINT lhumerus
					{
						OFFSET 3.362410 1.200890 -0.311210
						CHANNELS 3 Zrotation Yrotation Xrotation
						JOINT lradius
						{
							OFFSET 4.983000 -0.000000 -0.000000
							CHANNELS 3 Zrotation Yrotation Xrotation
							JOINT lwrist
							{
								OFFSET 3.483560 -0.000000 -0.000000
								CHANNELS 3 Zrotation Yrotation Xrotation
								JOINT lhand
								{
									OFFSET 0.000000 0.000000 0.000000
									CHANNELS 3 Zrotation Yrotation Xrotation
									JOINT lfingers
									{
										OFFSET 0.715260 -0.000000 -0.000000
										CHANNELS 3 Zrotation Yrotation Xrotation
										End Site
										{
											OFFSET 0.000000 0.000000 0.000000
										}
									}
								}
								JOINT lthumb
								{
									OFFSET 0.000000 0.000000 0.000000
									CHANNELS 3 Zrotation Yrotation Xrotation
									End Site
									{
										OFFSET 0.000000 0.000000 0.000000
									}
								}
							}
						}
					}
				}
				JOINT rclavicle
				{
					OFFSET 0.000000 0.000000 0.000000
					CHANNELS 3 Zrotation Yrotation Xrotation
					JOINT rhumerus
					{
						OFFSET -3.136600 1.374050 -0.404650
						CHANNELS 3 Zrotation Yrotation Xrotation
						JOINT rradius
						{
							OFFSET -5.241900 -0.000000 -0.000000
							CHANNELS 3 Zrotation Yrotation Xrotation
							JOINT rwrist
							{
								OFFSET -3.444170 -0.000000 -0.000000
								CHANNELS 3 Zrotation Yrotation Xrotation
								JOINT rhand
								{
									OFFSET 0.000000 0.000000 0.000000
									CHANNELS 3 Zrotation Yrotation Xrotation
									JOINT rfingers
									{
										OFFSET -0.622530 -0.000000 -0.000000
										CHANNELS 3 Zrotation Yrotation Xrotation
										End Site
										{
											OFFSET 0.000000 0.000000 0.000000
										}
									}
								}
								JOINT rthumb
								{
									OFFSET 0.000000 0.000000 0.000000
									CHANNELS 3 Zrotation Yrotation Xrotation
									End Site
									{
										OFFSET 0.000000 0.000000 0.000000
									}
								}
							}
						}
					}
				}
			}
		}
	}
}
MOTION
Frames: 11
Frame Time: 0.008333
-14.738921 16.509343 -3.194088 30.414927 -39.588636 17.440174 -8.497632 -2.035478 -3.484136 -12.979004 -25.630771 -46.051754 5.226834 9.213655 34.337569 -1.637534 -28.492960 3.909277 0.019400 -0.899000 -2.471100 10.000756 0.246939 1.030216 -20.817974 -5.411628 -76.581387 -8.629917 -12.777404 53.020990 -0.636249 13.074103 2.429494 -0.113600 2.172600 -5.982900 11.472679 -3.847478 40.625814 1.877092 -3.389911 1.845892 -8.902520 0.579621 11.926077 -1.610951 -13.734014 6.034267 14.063120 -19.555741 -13.334484 5.604600 -10.526600 -8.787900 -6.602691 -4.947999 5.297088 -73.259671 -9.945243 34.561695 29.648328 -41.304233 -11.357597 0.188047 1.889786 7.608010 31.106481 -15.319485 -10.333800 -7.125000 0.000000 0.000000 2.109400 9.734600 -1.723600 11.651256 3.860733 1.491034 -23.532476 24.639597 -54.544118 -12.207544 32.002747 -4.321768 0.497865 1.332440 -0.149299 -21.608263 9.046826 -3.075100 7.125000 0.000000 0.000000 3.417000 -21.795100 1.907400 
-14.773677 16.505850 -3.199821 30.486176 -39.462085 17.551916 -8.503471 -2.035366 -3.478400 -12.937069 -25.658117 -46.138981 5.224273 9.200191 34.316976 -1.643623 -28.534955 3.914675 0.024800 -1.016100 -2.793200 10.004342 0.249756 1.033446 -20.806802 -5.462599 -76.725850 -8.676445 -12.809458 53.201063 -0.644211 13.069886 2.309332 -0.109000 2.128900 -5.862000 11.456899 -3.877257 40.616727 1.867480 -3.427619 1.828677 -8.925108 0.567741 11.862450 -1.666800 -13.687823 6.164166 14.132697 -19.497114 -13.401205 5.656000 -10.502600 -8.828700 -6.607791 -4.954853 5.301459 -73.326420 -10.127675 34.672094 29.654009 -41.300855 -11.363865 0.177626 1.898406 7.552313 31.453573 -15.252998 -10.447200 -7.125000 0.000000 0.000000 2.348000 9.725200 -1.919200 11.647377 3.850407 1.506262 -23.219391 24.668169 -54.322558 -12.393835 32.198484 -4.417811 0.489632 1.321538 -0.031325 -21.645670 9.085733 -3.099100 7.125000 0.000000 0.000000 3.398500 -21.740200 1.901300 
-14.806194 16.501550 -3.204748 30.548969 -39.315407 17.655809 -8.509697 -2.039265 -3.472747 -12.932303 -25.630888 -46.235999 5.223944 9.191005 34.307099 -1.664669 -28.644194 3.971354 0.033500 -1.181000 -3.247000 10.009948 0.254358 1.034817 -20.774776 -5.548446 -76.860698 -8.720221 -12.843365 53.373441 -0.652330 13.064152 2.171295 -0.106100 2.100500 -5.783600 11.468196 -3.913394 40.577378 1.857730 -3.476945 1.821971 -8.974116 0.561901 11.846349 -1.684225 -13.656933 6.272340 14.210349 -19.449680 -13.478912 5.704800 -10.488300 -8.871700 -6.619368 -4.954958 5.306689 -73.320403 -10.325298 34.832085 29.649836 -41.291130 -11.363236 0.167855 1.904113 7.469706 31.773618 -15.211653 -10.561700 -7.125000 0.000000 0.000000 2.564600 9.695900 -2.098200 11.648536 3.838878 1.520113 -22.908800 24.689537 -54.131908 -12.576860 32.384330 -4.509580 0.482129 1.311986 0.026933 -21.758468 9.127332 -3.135600 7.125000 0.000000 0.000000 3.323700 -21.679700 1.863800 
-14.837725 16.497877 -3.209585 30.640448 -39.186248 17.727327 -8.515120 -2.041114 -3.464939 -12.968272 -25.585017 -46.327527 5.225201 9.185207 34.304185 -1.688719 -28.784011 3.991035 0.044900 -1.367000 -3.759300 10.017453 0.260813 1.037276 -20.768943 -5.634780 -76.979896 -8.759410 -12.873923 53.530278 -0.660088 13.063048 2.041960 -0.104800 2.087600 -5.747800 11.421002 -3.935956 40.560077 1.846611 -3.515634 1.803692 -8.996047 0.545041 11.773175 -1.677324 -13.609167 6.445574 14.245112 -19.379329 -13.529451 5.737700 -10.459900 -8.931300 -6.627747 -4.965852 5.313008 -73.293393 -10.448065 35.012346 29.664964 -41.295990 -11.368601 0.161468 1.907892 7.331906 31.945442 -15.203184 -10.631200 -7.125000 0.000000 0.000000 2.677700 9.663300 -2.192700 11.648095 3.831124 1.531486 -22.575767 24.723319 -53.846655 -12.743431 32.542402 -4.594725 0.469372 1.310182 -0.067284 -21.841820 8.893947 -3.053600 7.125000 0.000000 0.000000 3.267300 -21.922700 1.814100 
-14.867555 16.494652 -3.212720 30.721354 -39.070958 17.787339 -8.520521 -2.042240 -3.460948 -12.946536 -25.633314 -46.385433 5.226583 9.178411 34.304906 -1.699898 -28.851059 4.010211 0.051500 -1.464000 -4.026500 10.025617 0.264643 1.040905 -20.763332 -5.719684 -77.080559 -8.795121 -12.903152 53.674950 -0.667256 13.084449 1.930243 -0.102600 2.065300 -5.686100 11.393892 -3.953890 40.536894 1.831842 -3.550899 1.787656 -9.046693 0.537280 11.706213 -1.680815 -13.565065 6.657192 14.308874 -19.311876 -13.599130 5.790000 -10.434500 -8.999600 -6.641642 -4.979397 5.320992 -73.228971 -10.515100 35.202199 29.746810 -41.352039 -11.409200 0.154762 1.909775 7.182466 32.035778 -15.176306 -10.654900 -7.125000 0.000000 0.000000 2.740800 9.672000 -2.244000 11.645859 3.823596 1.541475 -22.247669 24.762207 -53.609725 -12.864641 32.655184 -4.661315 0.459988 1.307757 -0.132464 -21.900981 8.714384 -2.989700 7.125000 0.000000 0.000000 3.227600 -22.109100 1.778200 
-14.896309 16.493040 -3.216214 30.808142 -38.951899 17.807329 -8.523630 -2.041736 -3.454164 -12.997679 -25.598601 -46.402974 5.225796 9.176240 34.297000 -1.717977 -28.950848 4.028861 0.061800 -1.604200 -4.413000 10.032200 0.271467 1.044061 -20.765159 -5.797244 -77.123123 -8.827281 -12.930720 53.808663 -0.673776 13.102858 1.807380 -0.100300 2.042600 -5.623500 11.300354 -3.987281 40.562869 1.823604 -3.606402 1.767072 -9.020589 0.499699 11.599914 -1.744088 -13.467665 6.918890 14.369676 -19.187932 -13.659521 5.848000 -10.378900 -9.071300 -6.651423 -5.002701 5.330886 -73.229687 -10.534355 35.284325 29.804240 -41.392433 -11.441653 0.152883 1.912897 7.122881 32.148150 -15.207095 -10.721900 -7.125000 0.000000 0.000000 2.808800 9.607700 -2.303400 11.638347 3.809236 1.554738 -21.961316 24.858052 -53.317076 -12.995155 32.790242 -4.726916 0.450013 1.303697 -0.342930 -21.958465 8.558200 -2.936300 7.125000 0.000000 0.000000 3.187300 -22.267400 1.744500 
-14.923272 16.491876 -3.219528 30.889147 -38.838228 17.805666 -8.525482 -2.044154 -3.449107 -13.017833 -25.604489 -46.395080 5.224299 9.172561 34.286447 -1.734425 -29.047170 4.029050 0.072900 -1.742400 -4.794300 10.039341 0.273099 1.049371 -20.751779 -5.873368 -77.159220 -8.856176 -12.957119 53.928440 -0.681348 13.121008 1.651843 -0.107900 2.118100 -5.832200 11.269458 -4.004724 40.591698 1.806279 -3.639228 1.745254 -9.084506 0.491864 11.484440 -1.714311 -13.397318 7.254828 14.425696 -19.077790 -13.736089 5.904800 -10.335400 -9.178900 -6.667672 -5.029547 5.344165 -73.119180 -10.500687 35.484416 29.914010 -41.473322 -11.499301 0.146978 1.913196 6.916295 32.208275 -15.230212 -10.760300 -7.125000 0.000000 0.000000 2.843600 9.567700 -2.334300 11.634134 3.804583 1.563704 -21.590413 24.851806 -52.923138 -13.105443 32.880059 -4.784177 0.441966 1.302609 -0.572374 -22.021945 8.449591 -2.901800 7.125000 0.000000 0.000000 3.141600 -22.377800 1.711500 
-14.948981 16.489546 -3.222305 31.001571 -38.744236 17.793338 -8.527449 -2.043728 -3.444906 -13.053615 -25.639670 -46.387950 5.222346 9.166903 34.272831 -1.746468 -29.109699 4.061926 0.083700 -1.866600 -5.137000 10.048467 0.277375 1.053929 -20.784535 -5.947579 -77.195283 -8.881616 -12.980437 54.038478 -0.687479 13.129531 1.535332 -0.104200 2.081300 -5.730300 11.179560 -4.014875 40.615302 1.787434 -3.676660 1.721054 -9.116387 0.470396 11.364023 -1.724582 -13.331109 7.540217 14.472126 -18.983805 -13.832908 5.960900 -10.295400 -9.277700 -6.680936 -5.054830 5.354140 -73.057347 -10.443698 35.583775 30.010169 -41.545416 -11.553095 0.146447 1.913525 6.845068 32.263699 -15.291209 -10.818900 -7.125000 0.000000 0.000000 2.869400 9.485100 -2.360400 11.625138 3.800723 1.570381 -21.281736 24.912629 -52.663153 -13.149903 32.912865 -4.809764 0.437656 1.299127 -0.738920 -22.088874 8.366329 -2.879000 7.125000 0.000000 0.000000 3.092000 -22.458700 1.678700 
-14.972630 16.489546 -3.224993 31.091596 -38.646008 17.742600 -8.526761 -2.044513 -3.440798 -13.110721 -25.626577 -46.343442 5.218433 9.164190 34.253665 -1.769521 -29.192556 4.188416 0.089100 -1.925600 -5.300200 10.055965 0.281397 1.057916 -20.786913 -6.018423 -77.183858 -8.904411 -13.003570 54.137511 -0.693965 13.153249 1.391490 -0.114500 2.181300 -6.007000 11.109715 -4.031505 40.674257 1.770841 -3.712991 1.697879 -9.151620 0.450752 11.259926 -1.763607 -13.336801 7.592421 14.468482 -18.999970 -13.784728 5.969600 -10.296300 -9.264800 -6.691646 -5.069161 5.353073 -72.971114 -10.373565 35.735983 30.105346 -41.620722 -11.607610 0.143482 1.914148 6.723731 32.380260 -15.361171 -10.909200 -7.125000 0.000000 0.000000 2.933900 9.377900 -2.419900 11.620959 3.809688 1.567712 -20.962483 24.918328 -52.306074 -13.207191 32.937896 -4.833720 0.432695 1.296695 -0.989927 -22.211114 8.288160 -2.865600 7.125000 0.000000 0.000000 3.000900 -22.532400 1.624000 
-14.995652 16.489457 -3.227411 31.189980 -38.568367 17.700589 -8.525430 -2.044161 -3.438323 -13.143373 -25.663431 -46.284489 5.213374 9.158921 34.228833 -1.773694 -29.202613 4.227755 0.097500 -2.013500 -5.543100 10.063823 0.283765 1.062772 -20.802619 -6.077505 -77.171185 -8.924200 -13.023756 54.224709 -0.699931 13.154412 1.251974 -0.116200 2.197500 -6.051700 11.024720 -4.030303 40.716950 1.749740 -3.736751 1.673373 -9.198699 0.436999 11.149242 -1.803738 -13.316975 7.688875 14.477647 -18.980103 -13.778687 5.990000 -10.282500 -9.278300 -6.705794 -5.087870 5.354858 -72.863102 -10.279348 35.888190 30.213973 -41.704453 -11.666862 0.142295 1.912993 6.542146 32.390389 -15.461793 -10.970200 -7.125000 0.000000 0.000000 2.923100 9.261800 -2.417700 11.613869 3.817817 1.563574 -20.649118 24.931331 -52.014366 -13.212153 32.909973 -4.834348 0.430888 1.294203 -1.160816 -22.339814 8.224762 -2.858800 7.125000 0.000000 0.000000 2.904200 -22.590500 1.567700 
-15.016792 16.490084 -3.229919 31.271515 -38.470583 17.640819 -8.524252 -2.043879 -3.435632 -13.190784 -25.659282 -46.217568 5.208041 9.156321 34.204871 -1.799093 -29.289327 4.374971 0.101300 -2.052600 -5.651000 10.071185 0.288643 1.065786 -20.808655 -6.147969 -77.125401 -8.939764 -13.043138 54.298170 -0.705118 13.163013 1.120545 -0.120400 2.236800 -6.160500 10.935522 -4.048536 40.768224 1.735817 -3.780328 1.655365 -9.207404 0.409743 11.066355 -1.854000 -13.291796 7.676651 14.444673 -18.960389 -13.686171 5.973600 -10.263800 -9.238200 -6.714336 -5.098556 5.353383 -72.830280 -10.248928 35.933758 30.272611 -41.746060 -11.697850 0.145375 1.912523 6.404404 32.332139 -15.586227 -11.015600 -7.125000 0.000000 0.000000 2.863000 9.132900 -2.375300 11.608038 3.824270 1.558115 -20.398367 24.989705 -51.777356 -13.199570 32.875386 -4.824470 0.430021 1.290453 -1.396156 -22.456204 8.195964 -2.865500 7.125000 0.000000 0.000000 2.815300 -22.609800 1.518300 
